<?xml version="1.0" encoding="utf-8"?>
<!-- Generated by IcoMoon.io -->
<!DOCTYPE svg PUBLIC "-//W3C//DTD SVG 1.1//EN" "http://www.w3.org/Graphics/SVG/1.1/DTD/svg11.dtd">
<svg version="1.1" xmlns="http://www.w3.org/2000/svg" xmlns:xlink="http://www.w3.org/1999/xlink" width="512" height="512" viewBox="0 0 512 512">
<g>
</g>
	<path d="M409.6 185.421h-15.36c-5.658 0-10.24 4.608-10.24 10.24v70.579c0 34.227-26.957 92.16-128 92.16s-128-57.933-128-92.16v-70.579c0-5.632-4.633-10.24-10.24-10.24h-15.36c-5.632 0-10.24 4.608-10.24 10.24v70.579c0 57.267 42.087 118.528 138.24 126.976v67.584h-66.585c-5.607 0-10.214 4.608-10.214 10.24v30.72c0 5.632 4.608 10.24 10.214 10.24h184.32c5.658 0 10.24-4.608 10.24-10.24v-30.72c0-5.658-4.608-10.24-10.24-10.24h-66.534v-67.584c96.179-8.448 138.24-69.734 138.24-126.976v-70.579c0-5.632-4.608-10.24-10.24-10.24zM256 307.2c60.083 0 76.8-24.678 76.8-40.96v-80.819h-153.6v80.819c0 16.281 16.717 40.96 76.8 40.96zM332.8 40.96c0-16.307-16.717-40.96-76.8-40.96s-76.8 24.653-76.8 40.96v108.621h153.6v-108.621z" fill="#000000" />
</svg>
