<?xml version="1.0" standalone="no"?><!DOCTYPE svg PUBLIC "-//W3C//DTD SVG 1.1//EN" "http://www.w3.org/Graphics/SVG/1.1/DTD/svg11.dtd"><svg t="1504141565375" class="icon" style="" viewBox="0 0 1024 1024" version="1.1" xmlns="http://www.w3.org/2000/svg" p-id="1964" xmlns:xlink="http://www.w3.org/1999/xlink" width="200" height="200"><defs><style type="text/css">html, * {  }
</style></defs><path d="M853.504 30.208H170.496a90.624 90.624 0 0 0-90.624 90.624v782.336a90.624 90.624 0 0 0 90.624 90.624h683.008a90.624 90.624 0 0 0 90.624-90.624V120.832A90.624 90.624 0 0 0 853.504 30.208z m13.824 870.4a13.824 13.824 0 0 1-13.824 13.824H170.496a13.824 13.824 0 0 1-13.824-13.824V120.832a13.824 13.824 0 0 1 13.824-13.824h683.008a13.824 13.824 0 0 1 13.824 13.824v782.336z" fill="#ffffff" p-id="1965"></path><path d="M310.272 260.608h-24.064a25.6 25.6 0 0 0 0 51.2h24.064a25.6 25.6 0 0 0 0-51.2zM737.792 260.608H448a25.6 25.6 0 0 0 0 51.2h289.792a25.6 25.6 0 0 0 0-51.2zM310.272 486.4h-24.064a25.6 25.6 0 0 0 0 51.2h24.064a25.6 25.6 0 0 0 0-51.2zM737.792 486.4H448a25.6 25.6 0 0 0 0 51.2h289.792a25.6 25.6 0 0 0 0-51.2zM737.792 712.192H448a25.6 25.6 0 0 0 0 51.2h289.792a25.6 25.6 0 0 0 0-51.2zM310.272 712.192h-24.064a25.6 25.6 0 0 0 0 51.2h24.064a25.6 25.6 0 0 0 0-51.2z" fill="#ffffff" p-id="1966"></path></svg>