<?xml version="1.0" standalone="no"?><!DOCTYPE svg PUBLIC "-//W3C//DTD SVG 1.1//EN" "http://www.w3.org/Graphics/SVG/1.1/DTD/svg11.dtd"><svg t="1504141544972" class="icon" style="" viewBox="0 0 1024 1024" version="1.1" xmlns="http://www.w3.org/2000/svg" p-id="1806" xmlns:xlink="http://www.w3.org/1999/xlink" width="200" height="200"><defs><style type="text/css">html, * {  }
</style></defs><path d="M512 34.304A477.696 477.696 0 1 0 989.696 512 478.208 478.208 0 0 0 512 34.304z m0 879.104A400.896 400.896 0 1 1 912.896 512 401.408 401.408 0 0 1 512 912.896z" fill="#ffffff" p-id="1807"></path><path d="M831.488 486.4H537.6V192.512a25.6 25.6 0 0 0-51.2 0V512a25.6 25.6 0 0 0 25.6 25.6h319.488a25.6 25.6 0 0 0 0-51.2z" fill="#ffffff" p-id="1808"></path></svg>