<?xml version="1.0" standalone="no"?><!DOCTYPE svg PUBLIC "-//W3C//DTD SVG 1.1//EN" "http://www.w3.org/Graphics/SVG/1.1/DTD/svg11.dtd"><svg t="1504141593365" class="icon" style="" viewBox="0 0 1024 1024" version="1.1" xmlns="http://www.w3.org/2000/svg" p-id="2279" xmlns:xlink="http://www.w3.org/1999/xlink" width="200" height="200"><defs><style type="text/css">html, * {  }
</style></defs><path d="M918.528 394.752a38.4 38.4 0 0 0-35.328-23.04h-256L665.6 59.904a38.4 38.4 0 0 0-66.048-30.208L112.128 586.752a38.4 38.4 0 0 0-6.144 41.472 39.936 39.936 0 0 0 35.328 22.528l261.632-2.56-72.704 312.32a38.4 38.4 0 0 0 65.536 34.816L911.36 436.224a38.4 38.4 0 0 0 7.168-41.472z m-480.768 441.856l51.2-219.136a38.4 38.4 0 0 0-37.376-47.104H226.816l348.16-397.312-30.72 232.448a38.4 38.4 0 0 0 37.888 43.52h212.992z" fill="#ffffff" p-id="2280"></path></svg>