<?xml version="1.0" standalone="no"?><!DOCTYPE svg PUBLIC "-//W3C//DTD SVG 1.1//EN" "http://www.w3.org/Graphics/SVG/1.1/DTD/svg11.dtd"><svg t="1504141582957" class="icon" style="" viewBox="0 0 1024 1024" version="1.1" xmlns="http://www.w3.org/2000/svg" p-id="2122" xmlns:xlink="http://www.w3.org/1999/xlink" width="200" height="200"><defs><style type="text/css">html, * {  }
</style></defs><path d="M512 18.944a364.544 364.544 0 0 0-369.152 358.4 358.4 358.4 0 0 0 182.784 309.76 19.456 19.456 0 0 1 8.192 16.896h5.632v153.6a161.792 161.792 0 0 0 166.912 153.6h12.8a161.792 161.792 0 0 0 166.912-156.16l-2.56-153.6h6.144a19.456 19.456 0 0 1 8.192-16.896 358.4 358.4 0 0 0 182.784-309.76A364.544 364.544 0 0 0 512 18.944z m121.856 726.528v34.816H390.656v-34.816h243.2z m0 125.44H392.192a92.16 92.16 0 0 1 0-10.24v-29.696h244.224v30.208a92.16 92.16 0 0 1 0 10.24z m-113.664 94.72H506.88A119.808 119.808 0 0 1 413.696 921.6H614.4a119.808 119.808 0 0 1-94.208 44.032z m140.288-344.064a94.208 94.208 0 0 0-46.08 72.704h-76.8v-164.352l119.296-130.048a25.6 25.6 0 0 0-18.944-41.472H386.048a25.6 25.6 0 0 0-18.944 43.008l119.296 128.512v164.352H409.6a94.208 94.208 0 0 0-45.568-72.704 282.112 282.112 0 0 1-144.384-243.2A287.744 287.744 0 0 1 512 95.744a287.744 287.744 0 0 1 292.352 282.624 282.112 282.112 0 0 1-143.872 243.2zM512 482.304L444.416 409.6h135.168z" fill="#ffffff" p-id="2123"></path></svg>