<?xml version="1.0" standalone="no"?><!DOCTYPE svg PUBLIC "-//W3C//DTD SVG 1.1//EN" "http://www.w3.org/Graphics/SVG/1.1/DTD/svg11.dtd"><svg t="1504141603082" class="icon" style="" viewBox="0 0 1024 1024" version="1.1" xmlns="http://www.w3.org/2000/svg" p-id="2436" xmlns:xlink="http://www.w3.org/1999/xlink" width="200" height="200"><defs><style type="text/css">html, * {  }
</style></defs><path d="M143.872 798.72a38.4 38.4 0 0 0 38.4-38.4V221.696a38.4 38.4 0 0 0-76.8 0v538.624a38.4 38.4 0 0 0 38.4 38.4zM517.12 798.72a38.4 38.4 0 0 0 38.4-38.4V83.456a38.4 38.4 0 0 0-76.8 0v676.864a38.4 38.4 0 0 0 38.4 38.4zM880.128 798.72a38.4 38.4 0 0 0 38.4-38.4v-424.96a38.4 38.4 0 0 0-76.8 0v424.96a38.4 38.4 0 0 0 38.4 38.4zM933.888 902.656H90.112a38.4 38.4 0 0 0 0 76.8h843.776a38.4 38.4 0 0 0 0-76.8z" fill="#ffffff" p-id="2437"></path></svg>