<?xml version="1.0" standalone="no"?><!DOCTYPE svg PUBLIC "-//W3C//DTD SVG 1.1//EN" "http://www.w3.org/Graphics/SVG/1.1/DTD/svg11.dtd"><svg t="1504141485329" class="icon" style="" viewBox="0 0 1024 1024" version="1.1" xmlns="http://www.w3.org/2000/svg" p-id="1433" xmlns:xlink="http://www.w3.org/1999/xlink" width="200" height="200"><defs><style type="text/css">html, * {  }
</style></defs><path d="M471.552 622.08h67.072v69.632H471.552zM517.12 249.856a81.408 81.408 0 0 0-38.4 9.728 98.816 98.816 0 0 0-59.904 110.08h45.568Q460.8 297.984 512 295.424h10.24a51.2 51.2 0 0 1 55.296 45.568 97.28 97.28 0 0 1-16.896 62.464 224.256 224.256 0 0 0-79.36 167.936h43.008a165.376 165.376 0 0 1 28.672-93.696q88.576-81.408 65.024-163.328a99.328 99.328 0 0 0-100.864-64.512z" fill="#ffffff" p-id="1434"></path><path d="M866.816 30.72h-716.8a102.4 102.4 0 0 0-102.4 102.4v645.12a102.4 102.4 0 0 0 102.4 102.4H389.12l91.136 98.816a38.4 38.4 0 0 0 56.32 0l91.136-98.816h239.104a102.4 102.4 0 0 0 102.4-102.4V135.168a102.4 102.4 0 0 0-102.4-104.448z m27.136 747.52a27.136 27.136 0 0 1-27.136 27.136h-256a38.4 38.4 0 0 0-28.16 12.288l-74.24 80.384L434.176 819.2a38.4 38.4 0 0 0-28.16-12.288h-256a27.136 27.136 0 0 1-27.136-28.672V135.168a27.136 27.136 0 0 1 27.136-27.648h716.8a27.136 27.136 0 0 1 27.136 27.136V778.24z" fill="#ffffff" p-id="1435"></path></svg>